# xmcd
#
# Track frame offsets: 
#        187
#        26842
#        55087
#        85057
#        115167
#        145072
#        168922
#        185012
#        216997
#        243997
#        275677
#        300927
#
# Disc length: 4265 seconds
#
# Revision: 2
# Processed by: cddbd v1.4PL0 Copyright (c) Steve Scherf et al.
# Submitted via: ExactAudioCopy v0.90b4
#
DISCID=a310a70c
DTITLE=Lacrimosa - Schakal
DYEAR=1994
DGENRE=Gothic
TTITLE0=Alles Luge
TTITLE1=Alles Luge (Sanguis Mix)
TTITLE2=Diener Eines Geistes (Virus Mix)
TTITLE3=Ruin
TTITLE4=Schakal (Edit Version)
TTITLE5=Schakal (Piano Version)
TTITLE6=Vermachtnis Der Sonne (Akustik Version)
TTITLE7=Seel In Not (Metis Mix)
TTITLE8=Stolzes Herz (Edit Version)
TTITLE9=Ich Bin Der Brennande Komet
TTITLE10=Mutatio Spiritus
TTITLE11=Stolzes Herz (Piano Version)
EXTD=
EXTT0=
EXTT1=
EXTT2=
EXTT3=
EXTT4=
EXTT5=
EXTT6=
EXTT7=
EXTT8=
EXTT9=
EXTT10=
EXTT11=
PLAYORDER=
